# xmcd
#
# Track frame offsets:
#	150
#	15991
#	30888
#	46694
#	60045
#	75934
#	92015
#	109034
#	122194
#	138587
#	152151
#	169051
#	184997
#	199805
#	216752
#	234216
#	250475
#	268682
#	285833
#	303568
#
# Disc length: 4219 seconds
#
# Revision: 0
# Processed by: cddbd v1.5.2PL0 Copyright (c) Steve Scherf et al.
# Submitted via: audiograbber 1.83.01
#
DISCID=fa107914
DTITLE=Vraious Artists - Summer Jams Top 100 disc 4/5
DYEAR=2006
DGENRE=Top40
TTITLE0=Kaner - Calabria
TTITLE1=Inner Circle - Sweat (A La La La La Long)
TTITLE2=Channing - Bootsy Bootsy Boom
TTITLE3=DJ Chuckie - Da Partycrasher
TTITLE4=Whigfield - Saturday Night
TTITLE5=June Lodge  And Prince Mohammed - Someone Loves You Honey
TTITLE6=Afro Medusa - Pasilda
TTITLE7=Kings Of Tomorrow - Finally
TTITLE8=DJ Sammy  and  Yanou - Heaven
TTITLE9=Jan Wayne - Because The Night
TTITLE10=Special D. - TMF Awards Hitmix
TTITLE11=Shapeshifters - Lola's Theme
TTITLE12=Kevin Lyttle  and  Trini Jacobs - Sexy Ways
TTITLE13=Malu - Fotonovela
TTITLE14=Atlantic Ocean - Waterfall
TTITLE15=Bombaz - Give It Up
TTITLE16=Salou SL - What's Up
TTITLE17=The Tamperer - Feel It
TTITLE18=Al Cappucino - Welcome To Ibiza
TTITLE19=Miss Jane - It's A Fine Day
EXTD=
EXTT0=
EXTT1=
EXTT2=
EXTT3=
EXTT4=
EXTT5=
EXTT6=
EXTT7=
EXTT8=
EXTT9=
EXTT10=
EXTT11=
EXTT12=
EXTT13=
EXTT14=
EXTT15=
EXTT16=
EXTT17=
EXTT18=
EXTT19=
PLAYORDER=
